<svg width="64" height="64" viewBox="0 0 64 64" fill="none" xmlns="http://www.w3.org/2000/svg">
<g clip-path="url(#clip0_214_26601)">
<path fill-rule="evenodd" clip-rule="evenodd" d="M11.4159 63.416C11.1362 63.6964 10.7795 63.8875 10.3911 63.965C10.0026 64.0424 9.59996 64.0028 9.23406 63.8511C8.86817 63.6995 8.55555 63.4426 8.33584 63.113C8.11612 62.7835 7.99921 62.3961 7.99992 62V56H1.99992C1.60383 56.0007 1.21646 55.8838 0.886904 55.6641C0.557347 55.4444 0.30045 55.1317 0.14878 54.7659C-0.00289021 54.4 -0.0425026 53.9973 0.0349645 53.6088C0.112432 53.2204 0.30349 52.8637 0.583917 52.584L6.58392 46.584C6.76999 46.3984 6.99083 46.2513 7.23379 46.1511C7.47676 46.0509 7.7371 45.9995 7.99992 46H15.1719L17.2919 43.88C14.2079 40.672 11.9799 37.56 10.4759 34.6C7.28392 28.3 7.37592 22.616 9.62392 18.232C13.7039 10.26 24.7199 7.236 31.9999 12.932C36.9999 9.012 43.7759 9.22 48.8479 12.324L53.1679 8L48.5879 3.416C48.3077 3.13652 48.1168 2.7802 48.0392 2.39214C47.9616 2.00408 48.0008 1.60173 48.152 1.236C48.3032 0.870268 48.5595 0.557608 48.8884 0.337589C49.2174 0.11757 49.6042 8.40595e-05 49.9999 0L61.9999 0C62.5303 0 63.0391 0.210714 63.4141 0.585786C63.7892 0.960859 63.9999 1.46957 63.9999 2V14C64.0006 14.3961 63.8837 14.7835 63.664 15.113C63.4443 15.4426 63.1317 15.6995 62.7658 15.8511C62.3999 16.0028 61.9972 16.0424 61.6088 15.965C61.2203 15.8875 60.8636 15.6964 60.5839 15.416L55.9999 10.828L51.9759 14.852C52.9199 15.844 53.7359 16.976 54.3759 18.232C56.6239 22.616 56.7159 28.3 53.5239 34.6C50.3519 40.852 43.9439 47.752 33.1039 54.92L31.9999 55.648L30.8959 54.92C27.1094 52.4506 23.5188 49.6931 20.1559 46.672L17.9999 48.832V56C18.0004 56.2628 17.9491 56.5232 17.8488 56.7661C17.7486 57.0091 17.6015 57.2299 17.4159 57.416L11.4159 63.416ZM22.9879 43.84C25.8249 46.3808 28.8362 48.7198 31.9999 50.84C41.8239 44.176 47.3079 38.012 49.9559 32.792C52.6719 27.432 52.3839 23.112 50.8159 20.052C47.5479 13.672 38.4679 11.836 33.4319 17.008L31.9999 18.48L30.5679 17.008C25.5319 11.836 16.4479 13.672 13.1839 20.052C11.6159 23.116 11.3279 27.432 14.0439 32.792C15.3359 35.336 17.3039 38.112 20.1199 41.052L27.5839 33.584C27.9595 33.2085 28.4688 32.9975 28.9999 32.9975C29.531 32.9975 30.0404 33.2085 30.4159 33.584C30.7915 33.9595 31.0024 34.4689 31.0024 35C31.0024 35.5311 30.7915 36.0405 30.4159 36.416L22.9879 43.84Z" fill="white"/>
</g>
<defs>
<clipPath id="clip0_214_26601">
<rect width="64" height="64" fill="white"/>
</clipPath>
</defs>
</svg>
