<svg width="64" height="64" viewBox="0 0 64 64" fill="none" xmlns="http://www.w3.org/2000/svg">
<path d="M22.3839 7.7216C22.3044 7.30379 22.0649 6.93353 21.7164 6.68967C21.368 6.44581 20.9381 6.34762 20.5183 6.416C20.3116 6.44951 20.1136 6.52411 19.9362 6.63538C19.7588 6.74665 19.6054 6.89234 19.4852 7.06385C19.365 7.23536 19.2804 7.42921 19.2363 7.63397C19.1923 7.83872 19.1897 8.05023 19.2287 8.256L19.2607 8.4256C13.7279 10.256 10.4671 13.1904 8.6143 16.4672C6.8063 19.6672 6.4479 23.0272 6.4063 25.6H6.3999V25.616L4.2559 28.2944C3.84168 28.8119 3.53914 29.4096 3.36736 30.0499C3.19557 30.6901 3.15825 31.359 3.25776 32.0144C3.35727 32.6697 3.59144 33.2974 3.94553 33.8578C4.29961 34.4182 4.76593 34.8991 5.3151 35.2704L33.0111 54.0224C36.4532 56.3534 40.5148 57.5995 44.6719 57.6H53.5999C54.5454 57.6 55.4817 57.4138 56.3552 57.0519C57.2288 56.6901 58.0225 56.1598 58.6911 55.4912C59.3597 54.8226 59.89 54.0289 60.2518 53.1553C60.6137 52.2818 60.7999 51.3455 60.7999 50.4C60.7999 46.368 57.5231 43.4304 54.1759 42.368C52.2271 41.7504 50.3999 40.7392 49.3311 39.152L39.6767 22.544C39.8772 22.5141 40.0767 22.4821 40.2751 22.448C40.4815 22.4145 40.6791 22.34 40.8563 22.2289C41.0335 22.1178 41.1867 21.9724 41.3069 21.8013C41.427 21.6301 41.5118 21.4367 41.556 21.2323C41.6003 21.0279 41.6033 20.8167 41.5647 20.6112C41.4859 20.1928 41.2467 19.8218 40.8982 19.5772C40.5496 19.3327 40.1193 19.2341 39.6991 19.3024C31.5071 20.688 23.7983 15.4368 22.3839 7.7216ZM36.0639 22.688L46.5919 40.8064L46.6431 40.8896C48.2911 43.3696 50.9311 44.6976 53.2127 45.4208C54.7647 45.9136 56.0543 46.8576 56.8287 48.0032H44.7679C42.5353 48.0041 40.3534 47.3377 38.5023 46.0896L33.0847 42.432L36.3871 40.5248C36.8423 40.2623 37.2414 39.9126 37.5614 39.4958C37.8815 39.079 38.1163 38.6032 38.2524 38.0957C38.3885 37.5881 38.4233 37.0587 38.3547 36.5377C38.2861 36.0167 38.1155 35.5143 37.8527 35.0592L35.3951 30.8032C35.1323 30.3482 34.7825 29.9495 34.3656 29.6298C33.9486 29.31 33.4728 29.0756 32.9653 28.9398C32.4577 28.8039 31.9284 28.7695 31.4075 28.8383C30.8866 28.9071 30.3844 29.0779 29.9295 29.3408L21.1711 34.3968L18.1311 32.3488L20.4031 31.0368C20.8581 30.774 21.2568 30.4242 21.5765 30.0072C21.8963 29.5903 22.1307 29.1145 22.2666 28.6069C22.4024 28.0994 22.4368 27.5701 22.368 27.0492C22.2992 26.5283 22.1285 26.0261 21.8655 25.5712L15.1615 13.952C16.4767 13.024 18.1151 12.1856 20.1599 11.4976C22.7231 17.9328 29.0079 22.288 36.0607 22.6848M29.7055 44.0064L29.8655 44.288L30.0031 44.208L36.7167 48.736C39.0959 50.3417 41.9007 51.1998 44.7711 51.2H57.5199C57.1487 53.024 55.5359 54.4 53.5999 54.4H44.6719C41.1537 54.4 37.7162 53.3456 34.8031 51.3728L7.1103 32.6208C6.92717 32.497 6.77168 32.3365 6.65365 32.1496C6.53562 31.9627 6.45761 31.7533 6.42454 31.5347C6.39146 31.3161 6.40405 31.0931 6.46149 30.8796C6.51894 30.6661 6.62 30.4669 6.7583 30.2944L7.6735 29.1456L20.9631 38.1088L21.0079 38.1856L21.0431 38.1632L29.7055 44.0064ZM30.1343 40.4384L24.1279 36.384L31.5327 32.1088C31.6237 32.056 31.7241 32.0216 31.8284 32.0076C31.9327 31.9936 32.0386 32.0004 32.1403 32.0274C32.242 32.0545 32.3373 32.1013 32.4208 32.1652C32.5043 32.2292 32.5744 32.3089 32.6271 32.4L35.0847 36.656C35.1374 36.7471 35.1716 36.8478 35.1853 36.9522C35.1991 37.0566 35.1921 37.1626 35.1647 37.2643C35.1374 37.366 35.0902 37.4613 35.026 37.5447C34.9617 37.6281 34.8816 37.698 34.7903 37.7504L30.1343 40.4384ZM11.4015 18.0384C11.7599 17.3984 12.2036 16.7659 12.7327 16.1408L19.1039 27.168C19.2093 27.3518 19.2376 27.5699 19.1824 27.7745C19.1272 27.9791 18.9931 28.1534 18.8095 28.2592L15.1871 30.352L9.5999 26.5856V26.176C9.5999 23.728 9.8623 20.7648 11.4015 18.0384Z" fill="white"/>
</svg>
