<svg width="64" height="64" viewBox="0 0 64 64" fill="none" xmlns="http://www.w3.org/2000/svg">
<g clip-path="url(#clip0_214_26466)">
<path d="M15.6569 28.8587C14.4427 28.08 13.5538 26.8231 13.7654 25.5111C13.7863 25.3814 13.8357 25.2579 13.9101 25.1495C13.9845 25.0412 14.082 24.9506 14.1956 24.8845C14.3092 24.8184 14.436 24.7782 14.567 24.767C14.6979 24.7558 14.8297 24.7737 14.9529 24.8196C18.1849 26.0196 21.7902 25.2747 24.9831 22.2453C25.0914 22.1426 25.2239 22.0687 25.3682 22.0306C25.5126 21.9925 25.6642 21.9914 25.8091 22.0274C25.954 22.0634 26.0875 22.1352 26.1973 22.2364C26.3071 22.3376 26.3897 22.4648 26.4374 22.6062C26.848 23.8311 26.48 25.4827 25.584 26.8391C25.0534 27.6399 24.358 28.3183 23.5444 28.829C22.7308 29.3397 21.8176 29.6711 20.8658 29.8009C18.736 30.1156 16.9262 29.6711 15.6569 28.8587ZM47.5627 28.8587C48.7769 28.08 49.6676 26.8231 49.456 25.5111C49.4351 25.3814 49.3857 25.2579 49.3113 25.1495C49.2369 25.0412 49.1394 24.9506 49.0258 24.8845C48.9122 24.8184 48.7854 24.7782 48.6544 24.767C48.5235 24.7558 48.3917 24.7737 48.2685 24.8196C45.0365 26.0196 41.4311 25.2747 38.2383 22.2453C38.13 22.1426 37.9975 22.0687 37.8532 22.0306C37.7088 21.9925 37.5572 21.9914 37.4123 22.0274C37.2674 22.0634 37.1339 22.1352 37.0241 22.2364C36.9143 22.3376 36.8317 22.4648 36.784 22.6062C36.3716 23.8311 36.7414 25.4827 37.6374 26.8391C38.1678 27.6397 38.8629 28.3179 39.6762 28.8286C40.4895 29.3394 41.4023 29.6708 42.3538 29.8009C44.4854 30.1156 46.2934 29.6711 47.5627 28.8587Z" fill="white"/>
<path fill-rule="evenodd" clip-rule="evenodd" d="M48.4587 44.4445C45.4009 38.112 39.1787 33.7778 32 33.7778C24.8214 33.7778 18.5992 38.112 15.5414 44.4445C14.7076 46.1689 16.1032 48 18.0196 48H45.9805C47.8969 48 49.2925 46.1689 48.4587 44.4445ZM32 37.3334C37.1023 37.3334 41.6943 40.0978 44.4054 44.4445H19.5947C22.3076 40.0978 26.8978 37.3334 32 37.3334Z" fill="white"/>
<path fill-rule="evenodd" clip-rule="evenodd" d="M64 32C64 49.6729 49.6729 64 32 64C14.3271 64 0 49.6729 0 32C0 14.3271 14.3271 0 32 0C49.6729 0 64 14.3271 64 32ZM60.4444 32C60.4444 47.7102 47.7102 60.4444 32 60.4444C16.2898 60.4444 3.55556 47.7102 3.55556 32C3.55556 16.2898 16.2898 3.55556 32 3.55556C47.7102 3.55556 60.4444 16.2898 60.4444 32Z" fill="white"/>
</g>
<defs>
<clipPath id="clip0_214_26466">
<rect width="64" height="64" fill="white"/>
</clipPath>
</defs>
</svg>
