<svg width="64" height="64" viewBox="0 0 64 64" fill="none" xmlns="http://www.w3.org/2000/svg">
<path d="M15.088 29.3387L11.168 38.16C6.21867 49.2907 3.74667 54.856 6.448 57.5573C9.14934 60.2587 14.7093 57.784 25.84 52.8373L34.6667 48.912C41.3787 45.928 44.736 44.4373 45.2693 41.56C45.8027 38.6827 43.2053 36.0853 38.0107 30.8933L33.1093 25.9893C27.9173 20.7947 25.32 18.1973 22.4427 18.7333C19.5653 19.2667 18.0747 22.624 15.0907 29.336M17.3333 28L36 46.6667M12 41.3333L22.6667 52M42.6667 21.3333L50.6667 13.3333M37.8587 5.33334C38.9253 7.112 39.776 11.7333 34.6667 16M58.6667 26.1413C56.888 25.0747 52.2667 24.224 48 29.3333M48 5.33334V5.38667M58.6667 16V16.0533M56 34.6667V34.72M29.3333 8V8.05334" stroke="white" stroke-width="3" stroke-linecap="round" stroke-linejoin="round"/>
</svg>
