<svg width="69" height="50" viewBox="0 0 69 50" fill="none" xmlns="http://www.w3.org/2000/svg">
<path d="M68.449 25.7658C68.1889 25.3111 67.8403 24.9125 67.4236 24.5931C67.007 24.2737 66.5305 24.0399 66.0221 23.9054C63.7158 23.3191 61.3268 23.1225 58.9549 23.324C60.3204 17.3273 59.4286 12.5949 58.5309 9.83636C58.2177 8.86185 57.5506 8.03824 56.6598 7.52609C55.7689 7.01395 54.7181 6.84998 53.7123 7.06615C50.5902 7.76223 47.6345 9.05665 45.0106 10.877C43.1846 6.92776 40.4237 3.47687 36.9639 0.819375C36.2541 0.287612 35.3894 0 34.5005 0C33.6117 0 32.747 0.287612 32.0371 0.819375C28.5793 3.47804 25.8196 6.92868 23.9933 10.877C21.3686 9.05631 18.4119 7.76187 15.2888 7.06615C14.2829 6.85024 13.2322 7.01472 12.3418 7.52747C11.4514 8.04022 10.7851 8.86444 10.473 9.83926C9.57536 12.5978 8.68356 17.3302 10.049 23.3269C7.67719 23.1254 5.28814 23.322 2.98187 23.9083C2.47342 24.0428 1.99699 24.2766 1.58033 24.596C1.16367 24.9154 0.815121 25.314 0.554998 25.7687C0.281623 26.2359 0.104626 26.7527 0.0343419 27.2887C-0.0359419 27.8247 0.00189591 28.3693 0.145646 28.8906C1.11347 32.4602 4.09297 39.2447 13.1338 44.6253C22.1746 50.0058 30.2009 50 34.502 50C38.8031 50 46.8176 50 55.8643 44.6253C64.911 39.2505 67.8846 32.4602 68.8525 28.8877C68.9971 28.3668 69.0359 27.8224 68.9666 27.2864C68.8973 26.7504 68.7214 26.2334 68.449 25.7658ZM46.3381 14.2169C48.7455 12.4123 51.5097 11.1343 54.4491 10.4671C54.6053 10.4355 54.7677 10.4625 54.9049 10.5431C55.0421 10.6236 55.1443 10.7519 55.1918 10.9032C56.3438 14.4553 57.4754 21.8038 52.0954 31.1056C49.9355 34.7744 47.1675 38.0539 43.9083 40.8057C46.1539 36.9193 47.9521 31.6666 47.9521 24.76C47.9796 21.1828 47.4348 17.624 46.3381 14.2169ZM13.8122 10.9119C13.8579 10.759 13.9594 10.6287 14.0968 10.5464C14.2342 10.4642 14.3976 10.4359 14.5548 10.4671C17.4943 11.1343 20.2585 12.4123 22.6659 14.2169C21.5692 17.624 21.0244 21.1828 21.0518 24.76C21.0518 31.6666 22.8501 36.9251 25.0898 40.797C21.8298 38.046 19.0617 34.7663 16.9028 31.0969C11.5286 21.8038 12.6601 14.4553 13.8122 10.9119ZM14.935 41.6283C6.95259 36.8873 4.3649 31.0417 3.53157 27.9662C3.50972 27.8881 3.5039 27.8064 3.51444 27.726C3.52499 27.6456 3.5517 27.5682 3.59298 27.4982C3.65622 27.3858 3.76114 27.3024 3.88537 27.2657C6.2485 26.6822 8.70542 26.5765 11.1104 26.9547C11.8519 28.9971 12.7747 30.9698 13.8677 32.8497C16.8676 37.9963 20.9583 42.4321 25.8559 45.849C21.9948 45.0896 18.2982 43.6609 14.935 41.6283ZM34.502 46.1804C31.964 44.3782 24.5606 37.9832 24.5606 24.76C24.5606 12.156 31.2681 5.7668 34.1511 3.60412C34.2523 3.52864 34.3755 3.48784 34.502 3.48784C34.6285 3.48784 34.7516 3.52864 34.8529 3.60412C37.7359 5.7668 44.4434 12.156 44.4434 24.76C44.4434 38.0646 37.078 44.3811 34.502 46.1804ZM65.4665 27.9779C64.6332 31.0417 62.0455 36.8873 54.0632 41.64C50.6962 43.6684 46.9966 45.0921 43.1335 45.8461C48.031 42.4292 52.1218 37.9934 55.1216 32.8468C56.2196 30.9684 57.1472 28.9966 57.8935 26.9547C60.3012 26.5795 62.7602 26.6892 65.1244 27.2773C65.2487 27.314 65.3536 27.3974 65.4168 27.5099C65.4571 27.5802 65.4828 27.6579 65.4924 27.7383C65.5019 27.8187 65.4951 27.9001 65.4724 27.9779H65.4665Z" fill="white"/>
</svg>
