<svg width="64" height="64" viewBox="0 0 64 64" fill="none" xmlns="http://www.w3.org/2000/svg">
<path d="M35.0001 19.8333C35.0001 11.5533 27.6201 4.83328 18.5 4.83328C9.38002 4.83328 2 11.5533 2 19.8333H8.00001L11 16.8333L14 19.8333H26M35.0001 17.2533C38.0379 15.0074 41.7223 13.8073 45.5001 13.8333C54.6201 13.8333 62.0001 20.5533 62.0001 28.8333H53.0001L50.0001 25.8333L47.0001 28.8333H38.0001" stroke="white" stroke-width="3" stroke-linecap="round" stroke-linejoin="round"/>
<path d="M13.67 24.9633C7.22002 31.4133 6.77002 41.3733 12.62 47.2534L25.3401 34.5033L27.4401 32.4033L29.5701 30.2733L35.9301 23.9133C30.0801 18.0333 20.12 18.5133 13.67 24.9633Z" stroke="white" stroke-width="3" stroke-linecap="round" stroke-linejoin="round"/>
<path d="M28.9998 42.3333C30.4998 49.8334 28.4898 55.8334 25.9998 61.8334H37.9998C43.9998 45.3333 36.4998 25.8333 34.9998 19.8333" stroke="white" stroke-width="3" stroke-linecap="round" stroke-linejoin="round"/>
</svg>
