<svg width="64" height="64" viewBox="0 0 64 64" fill="none" xmlns="http://www.w3.org/2000/svg">
<path d="M31.0182 57.8234C31.436 57.8234 31.8643 57.7304 32.3034 57.5442C32.7424 57.358 33.0972 57.1306 33.3679 56.8619L58.2904 32.1192C59.0939 31.3216 59.7141 30.5071 60.151 29.6757C60.5858 28.84 60.8032 27.924 60.8032 26.9276C60.8032 25.9184 60.5858 24.9389 60.151 23.989C59.7141 23.037 59.0939 22.1696 58.2904 21.3869L46.3023 9.48675C45.5116 8.68918 44.6986 8.10422 43.8631 7.73188C43.0298 7.35954 42.1049 7.17337 41.0883 7.17337C40.0845 7.17337 39.1521 7.35954 38.291 7.73188C37.43 8.10422 36.6191 8.68812 35.8582 9.48358L33.0706 12.2508L38.9847 18.1373C39.6199 18.7572 40.0941 19.4617 40.4073 20.2508C40.7185 21.0399 40.8741 21.8407 40.8741 22.653C40.8741 24.3053 40.3296 25.672 39.2405 26.753C38.1514 27.8341 36.7757 28.3736 35.1134 28.3714C34.2929 28.3714 33.4926 28.2477 32.7126 28.0002C31.9325 27.7526 31.2303 27.3189 30.6058 26.6991L24.4903 20.6506L10.6864 34.3501C10.3645 34.6716 10.1226 35.0366 9.96067 35.4449C9.7987 35.8532 9.71771 36.2657 9.71771 36.6825C9.71771 37.4314 9.95961 38.0481 10.4434 38.5326C10.9251 39.0191 11.5431 39.2624 12.2976 39.2624C12.7153 39.2624 13.1437 39.1694 13.5827 38.9832C14.0217 38.7949 14.3766 38.5664 14.6472 38.2977L24.778 28.2413L27.0414 30.4881L16.9266 40.5477C16.6026 40.8671 16.3597 41.231 16.1977 41.6393C16.0379 42.0497 15.9579 42.4622 15.9579 42.8769C15.9579 43.5856 16.2094 44.1896 16.7124 44.6889C17.2154 45.1882 17.8238 45.4389 18.5378 45.441C18.9555 45.441 19.3839 45.3468 19.8229 45.1586C20.2619 44.9703 20.6168 44.7428 20.8875 44.4763L31.7567 33.7059L34.0201 35.9494L23.1668 46.7389C22.8834 47.0076 22.651 47.3598 22.4699 47.7956C22.2866 48.2314 22.195 48.6567 22.195 49.0713C22.195 49.7779 22.4475 50.3809 22.9526 50.8801C23.4556 51.3836 24.064 51.6354 24.778 51.6354C25.1957 51.6354 25.6113 51.555 26.0248 51.3942C26.4382 51.2334 26.8048 50.9923 27.1245 50.6707L37.9937 39.8971L40.2571 42.1439L29.3878 52.9333C29.066 53.2549 28.8241 53.641 28.6622 54.0916C28.5002 54.5422 28.4192 54.9537 28.4192 55.326C28.4192 56.0749 28.6845 56.6789 29.2152 57.138C29.7459 57.5971 30.3469 57.8266 31.0182 57.8266M30.9991 61C29.3559 61 27.9493 60.4034 26.7792 59.2102C25.6092 58.0149 25.0956 56.5404 25.2384 54.7865C23.4268 54.8077 21.919 54.2714 20.7148 53.1777C19.5107 52.0818 18.9385 50.5543 18.9981 48.5953C17.0246 48.6165 15.4688 48.0558 14.3307 46.9134C13.1927 45.771 12.6748 44.2668 12.7771 42.4009C10.9996 42.4221 9.51205 41.9249 8.3143 40.9094C7.11869 39.8982 6.52088 38.4892 6.52088 36.6825C6.52088 35.868 6.67965 35.0535 6.99721 34.239C7.31476 33.4224 7.78363 32.7052 8.40381 32.0875L24.4903 16.1381L32.7445 24.3318C33.0152 24.6131 33.3498 24.8448 33.7483 25.0267C34.1469 25.2087 34.5955 25.2986 35.0942 25.2965C35.7783 25.2965 36.3825 25.0595 36.9068 24.5856C37.4311 24.1117 37.6943 23.494 37.6964 22.7324C37.6964 22.2373 37.6048 21.7931 37.4215 21.3996C37.2382 21.004 37.0059 20.6718 36.7246 20.4031L25.7275 9.48675C24.9347 8.68918 24.1109 8.10422 23.2563 7.73188C22.4017 7.35954 21.4661 7.17337 20.4495 7.17337C19.4457 7.17337 18.5335 7.35954 17.713 7.73188C16.8946 8.10422 16.0837 8.68918 15.2802 9.48675L5.54904 19.1655C4.86278 19.8425 4.30867 20.6517 3.88668 21.5931C3.4647 22.5325 3.24092 23.5024 3.21535 24.5031C3.19404 25.2203 3.25584 25.9089 3.40076 26.569C3.54569 27.229 3.78012 27.851 4.10407 28.4349L1.68087 30.8403C1.1438 29.9899 0.723948 29.0104 0.421314 27.9018C0.11868 26.7932 -0.0209152 25.6614 0.00252821 24.5063C0.0281029 23.0635 0.319015 21.6831 0.875264 20.365C1.43151 19.047 2.22859 17.8718 3.2665 16.8394L12.9369 7.24001C14.0516 6.14414 15.2312 5.32964 16.4758 4.79652C17.7205 4.26551 19.0663 4 20.5134 4C21.9605 4 23.2947 4.26656 24.5159 4.79969C25.7392 5.3307 26.9028 6.14414 28.0068 7.24001L30.7881 10.004L33.5757 7.24001C34.6903 6.14414 35.8593 5.32964 37.0826 4.79652C38.306 4.26551 39.6412 4 41.0883 4C42.5354 4 43.8812 4.26656 45.1259 4.79969C46.3684 5.3307 47.5405 6.14414 48.6424 7.24001L60.5538 19.0608C61.6556 20.1545 62.506 21.3826 63.1049 22.7451C63.7038 24.1075 64.0021 25.507 64 26.9434C64 28.382 63.7016 29.7074 63.1049 30.9197C62.5081 32.1319 61.6578 33.287 60.5538 34.385L35.6281 59.1055C34.9653 59.7656 34.2428 60.2458 33.4606 60.5462C32.6806 60.8466 31.8601 60.9968 30.9991 60.9968" fill="white"/>
</svg>
