<svg width="64" height="64" viewBox="0 0 64 64" fill="none" xmlns="http://www.w3.org/2000/svg">
<path d="M62.1887 58.3529H45.283C51.914 54.7926 57.0228 48.9139 59.6468 41.8243C62.2709 34.7347 62.229 26.9238 59.5292 19.8632C56.8294 12.8025 51.658 6.97957 44.9892 3.4914C38.3205 0.00323058 30.6149 -0.909336 23.3242 0.925628C16.0335 2.76059 9.66104 7.2164 5.40738 13.4536C1.15373 19.6907 -0.687434 27.2786 0.230785 34.7877C1.149 42.2968 4.76321 49.2086 10.3925 54.2209C16.0217 59.2332 23.2774 62 30.7925 62H62.1887C62.6691 62 63.1298 61.8079 63.4695 61.4659C63.8092 61.1239 64 60.6601 64 60.1765C64 59.6928 63.8092 59.229 63.4695 58.887C63.1298 58.5451 62.6691 58.3529 62.1887 58.3529ZM3.62271 31C3.62271 25.5901 5.21619 20.3017 8.20165 15.8036C11.1871 11.3054 15.4304 7.7995 20.3951 5.72922C25.3597 3.65894 30.8226 3.11726 36.0931 4.17268C41.3635 5.2281 46.2047 7.83321 50.0044 11.6586C53.8042 15.484 56.3919 20.3578 57.4402 25.6637C58.4886 30.9697 57.9505 36.4694 55.8941 41.4675C53.8377 46.4656 50.3553 50.7376 45.8872 53.7431C41.4192 56.7487 36.1662 58.3529 30.7925 58.3529C23.5891 58.3449 16.683 55.4605 11.5894 50.3326C6.49579 45.2047 3.6307 38.252 3.62271 31ZM30.7925 23.0981C32.1061 23.0981 33.3901 22.7059 34.4823 21.9712C35.5745 21.2365 36.4258 20.1923 36.9284 18.9705C37.4311 17.7488 37.5626 16.4044 37.3064 15.1074C37.0501 13.8104 36.4176 12.619 35.4887 11.6839C34.5599 10.7488 33.3765 10.112 32.0882 9.854C30.7999 9.59601 29.4645 9.72842 28.2509 10.2345C27.0373 10.7406 26.0001 11.5976 25.2703 12.6971C24.5405 13.7967 24.151 15.0894 24.151 16.4118C24.151 18.1851 24.8507 19.8858 26.0962 21.1397C27.3418 22.3936 29.0311 23.0981 30.7925 23.0981ZM30.7925 13.3726C31.3896 13.3726 31.9732 13.5508 32.4697 13.8848C32.9661 14.2187 33.3531 14.6934 33.5816 15.2487C33.8101 15.8041 33.8698 16.4152 33.7533 17.0047C33.6369 17.5943 33.3493 18.1358 32.9272 18.5608C32.505 18.9859 31.967 19.2753 31.3814 19.3926C30.7958 19.5099 30.1888 19.4497 29.6372 19.2197C29.0856 18.9896 28.6141 18.6001 28.2824 18.1003C27.9507 17.6005 27.7736 17.0129 27.7736 16.4118C27.7736 15.6057 28.0917 14.8327 28.6578 14.2628C29.224 13.6928 29.9918 13.3726 30.7925 13.3726ZM37.434 45.5882C37.434 44.2658 37.0445 42.9731 36.3147 41.8736C35.5849 40.774 34.5477 39.917 33.3341 39.4109C32.1205 38.9049 30.7851 38.7725 29.4968 39.0305C28.2085 39.2884 27.0251 39.9252 26.0962 40.8603C25.1674 41.7954 24.5349 42.9868 24.2786 44.2838C24.0223 45.5808 24.1539 46.9252 24.6565 48.147C25.1592 49.3687 26.0105 50.413 27.1027 51.1477C28.1949 51.8824 29.4789 52.2745 30.7925 52.2745C32.5539 52.2745 34.2432 51.5701 35.4887 50.3162C36.7343 49.0622 37.434 47.3616 37.434 45.5882ZM27.7736 45.5882C27.7736 44.9871 27.9507 44.3995 28.2824 43.8997C28.6141 43.4 29.0856 43.0104 29.6372 42.7804C30.1888 42.5503 30.7958 42.4902 31.3814 42.6074C31.967 42.7247 32.505 43.0142 32.9272 43.4392C33.3493 43.8642 33.6369 44.4058 33.7533 44.9953C33.8698 45.5849 33.8101 46.196 33.5816 46.7513C33.3531 47.3066 32.9661 47.7813 32.4697 48.1153C31.9732 48.4492 31.3896 48.6275 30.7925 48.6275C29.9918 48.6275 29.224 48.3073 28.6578 47.7373C28.0917 47.1673 27.7736 46.3943 27.7736 45.5882ZM45.283 37.6863C46.5966 37.6863 47.8807 37.2941 48.9729 36.5595C50.0651 35.8248 50.9163 34.7805 51.419 33.5587C51.9217 32.337 52.0532 30.9926 51.7969 29.6956C51.5407 28.3986 50.9081 27.2072 49.9793 26.2721C49.0505 25.337 47.8671 24.7002 46.5787 24.4422C45.2904 24.1842 43.955 24.3166 42.7414 24.8227C41.5279 25.3288 40.4906 26.1858 39.7608 27.2853C39.0311 28.3849 38.6415 29.6776 38.6415 31C38.6415 32.7733 39.3413 34.474 40.5868 35.7279C41.8323 36.9818 43.5216 37.6863 45.283 37.6863ZM45.283 27.9608C45.8801 27.9608 46.4638 28.1391 46.9602 28.473C47.4567 28.807 47.8436 29.2816 48.0721 29.837C48.3006 30.3923 48.3604 31.0034 48.2439 31.5929C48.1274 32.1825 47.8399 32.724 47.4177 33.1491C46.9955 33.5741 46.4576 33.8636 45.872 33.9808C45.2864 34.0981 44.6794 34.0379 44.1278 33.8079C43.5761 33.5779 43.1047 33.1883 42.7729 32.6885C42.4412 32.1887 42.2642 31.6011 42.2642 31C42.2642 30.194 42.5822 29.4209 43.1484 28.851C43.7145 28.281 44.4824 27.9608 45.283 27.9608ZM16.3019 24.3138C14.9884 24.3138 13.7043 24.7059 12.6121 25.4406C11.5199 26.1753 10.6687 27.2195 10.166 28.4413C9.66332 29.6631 9.53179 31.0074 9.78806 32.3045C10.0443 33.6015 10.6769 34.7928 11.6057 35.7279C12.5345 36.663 13.7179 37.2998 15.0063 37.5578C16.2946 37.8158 17.63 37.6834 18.8435 37.1773C20.0571 36.6713 21.0944 35.8143 21.8242 34.7147C22.5539 33.6152 22.9434 32.3224 22.9434 31C22.9434 29.2267 22.2437 27.526 20.9982 26.2721C19.7527 25.0182 18.0634 24.3138 16.3019 24.3138ZM16.3019 34.0392C15.7049 34.0392 15.1212 33.861 14.6248 33.527C14.1283 33.1931 13.7414 32.7184 13.5129 32.1631C13.2844 31.6077 13.2246 30.9967 13.3411 30.4071C13.4576 29.8176 13.7451 29.276 14.1673 28.851C14.5895 28.4259 15.1274 28.1365 15.713 28.0192C16.2986 27.9019 16.9056 27.9621 17.4572 28.1922C18.0088 28.4222 18.4803 28.8117 18.812 29.3115C19.1438 29.8113 19.3208 30.3989 19.3208 31C19.3208 31.8061 19.0027 32.5791 18.4366 33.1491C17.8705 33.719 17.1026 34.0392 16.3019 34.0392Z" fill="white"/>
</svg>
