<svg width="64" height="64" viewBox="0 0 64 64" fill="none" xmlns="http://www.w3.org/2000/svg">
<path fill-rule="evenodd" clip-rule="evenodd" d="M32 60.4444C47.7102 60.4444 60.4444 47.7102 60.4444 32C60.4444 16.2898 47.7102 3.55556 32 3.55556C16.2898 3.55556 3.55556 16.2898 3.55556 32C3.55556 47.7102 16.2898 60.4444 32 60.4444ZM32 64C49.6729 64 64 49.6729 64 32C64 14.3271 49.6729 0 32 0C14.3271 0 0 14.3271 0 32C0 49.6729 14.3271 64 32 64Z" fill="white"/>
<path fill-rule="evenodd" clip-rule="evenodd" d="M19.0133 39.1111C21.7778 45.9235 26.8711 49.7778 32 49.7778C37.1306 49.7778 42.2222 45.9235 44.9866 39.1111H19.0133ZM32 53.3333C24.8213 53.3333 18.5991 47.9147 15.5413 40L15.4524 39.7707C14.6595 37.6533 16.3555 35.5555 18.6186 35.5555H45.3831C47.6462 35.5555 49.344 37.6533 48.5475 39.7707L48.4604 40C45.4009 47.9147 39.1786 53.3333 32 53.3333Z" fill="white"/>
<path d="M27.2034 29.2303C27.4345 28.5938 27.3652 27.8169 27.175 27.1094C26.9451 26.2949 26.5784 25.5254 26.0905 24.8338C25.0576 23.36 23.3456 22.0071 21.0328 21.9076C18.6381 21.808 16.8496 23.328 15.7474 24.9405C15.2189 25.7171 14.8029 26.5646 14.5119 27.4578C14.2576 28.2507 14.1225 29.0614 14.2114 29.7103C14.2318 29.8582 14.2892 29.9986 14.3782 30.1185C14.4673 30.2385 14.5851 30.334 14.7208 30.3964C14.8565 30.4587 15.0057 30.4859 15.1547 30.4754C15.3037 30.4648 15.4476 30.4169 15.5732 30.336C16.2843 29.8809 17.0292 29.2569 17.719 28.6809C18.0319 28.4178 18.3359 28.1654 18.6168 27.9431C19.6159 27.1538 20.3945 26.704 21.0381 26.672C21.6514 26.6418 22.359 26.992 23.2514 27.6605C23.5714 27.8987 23.8808 28.1511 24.2008 28.4143L24.5474 28.6969C24.9812 29.0471 25.4434 29.4063 25.9092 29.6871C26.0216 29.7549 26.1475 29.7969 26.278 29.8103C26.4086 29.8236 26.5404 29.8078 26.6641 29.7641C26.7879 29.7205 26.9004 29.65 26.9936 29.5576C27.0869 29.4653 27.1585 29.3535 27.2034 29.2303ZM36.6452 29.2303C36.4141 28.5938 36.4852 27.8169 36.6754 27.1094C36.8745 26.3698 37.2425 25.5751 37.7599 24.8338C38.791 23.36 40.5048 22.0071 42.8176 21.9076C45.2105 21.808 47.0008 23.328 48.103 24.9405C48.6612 25.7583 49.0772 26.6436 49.3385 27.4578C49.591 28.2507 49.7261 29.0614 49.6372 29.7103C49.6166 29.8579 49.5592 29.9981 49.4703 30.1177C49.3814 30.2374 49.2638 30.3328 49.1284 30.3951C48.9929 30.4575 48.844 30.4847 48.6952 30.4744C48.5465 30.4641 48.4027 30.4165 48.2772 30.336C47.5661 29.8809 46.8194 29.2569 46.1314 28.6809C45.8354 28.4311 45.5361 28.1851 45.2336 27.9431C44.2328 27.1538 43.4559 26.704 42.8105 26.672C42.199 26.6418 41.4896 26.992 40.599 27.6605C40.279 27.8987 39.9696 28.1511 39.6496 28.4143L39.3012 28.6969C38.8707 29.0573 38.4163 29.3881 37.9412 29.6871C37.8288 29.7552 37.7027 29.7975 37.5719 29.811C37.4412 29.8245 37.3091 29.8089 37.1852 29.7652C37.0612 29.7215 36.9485 29.6508 36.8551 29.5583C36.7618 29.4658 36.6901 29.3538 36.6452 29.2303Z" fill="white"/>
</svg>
