<svg width="64" height="64" viewBox="0 0 64 64" fill="none" xmlns="http://www.w3.org/2000/svg">
<path d="M46.3347 12.6667C46.2363 11.4019 46.1145 10.139 45.9693 8.87867C45.7653 7.12133 44.7 5.67067 42.972 5.288C40.2787 4.69333 35.056 4 25.3333 4C15.6107 4 10.3893 4.69333 7.69467 5.288C5.968 5.67067 4.90133 7.12133 4.69733 8.87867C4.23528 12.9249 4.00246 16.9941 4 21.0667C4 26.7573 5.77333 32.2307 8.99333 36.6667" stroke="white" stroke-width="3" stroke-linecap="round" stroke-linejoin="round"/>
<path d="M20.3267 17.432C20.9774 15.7867 22.3827 14.6613 24.1507 14.7387C26.9067 14.8613 32.1307 15.544 41.5214 18.06C50.912 20.576 55.7774 22.5973 58.2254 23.8693C59.796 24.6853 60.4494 26.3627 60.192 28.1133C59.591 32.1414 58.7625 36.1322 57.7107 40.0667C55.2174 49.3693 47.9774 56.7587 38.564 58.7987C35.4214 59.48 32.444 59.8 30.4787 59.2733C28.5134 58.7467 26.0947 56.98 23.7134 54.82C16.5827 48.3453 14.0054 38.3267 16.4974 29.024C17.5542 25.0904 18.8327 21.2198 20.3267 17.4307" stroke="white" stroke-width="3" stroke-linecap="round" stroke-linejoin="round"/>
<path d="M41.9053 31.4733C41.9053 31.4733 44.528 29.4693 47.828 31.3733C51.1266 33.2787 50.7026 36.552 50.7026 36.552M34.4826 29.484C34.4826 29.484 33.2133 26.436 29.4026 26.436C25.5946 26.436 24.324 29.484 24.324 29.484M43.98 44.9467C41.276 48.3627 36.1133 51.12 32.8946 50.2573C29.6746 49.3947 26.5826 44.4253 25.948 40.1147" stroke="white" stroke-width="3" stroke-linecap="round" stroke-linejoin="round"/>
</svg>
