<svg width="25" height="17" viewBox="0 0 25 17" fill="none" xmlns="http://www.w3.org/2000/svg">
<path opacity="0.3" d="M12.5002 0C17.0683 5.54852e-05 21.0867 2.36084 24.5042 6.99707C24.8265 7.43333 25.0002 7.95969 25.0002 8.5C25.0002 9.04029 24.8265 9.56669 24.5042 10.0029C23.7315 11.0459 22.9289 11.9725 22.0989 12.7842L24.3499 14.2158C24.9324 14.5862 25.0992 15.3558 24.7229 15.9346C24.3466 16.5131 23.57 16.6818 22.9875 16.3115L20.0989 14.4746C17.769 16.1508 15.2369 17 12.5002 17C7.93223 17 3.91379 14.639 0.496338 10.0029L0.354736 9.79102C0.100093 9.36259 -0.021814 8.86938 0.00317383 8.37305C0.0281956 7.87666 0.19984 7.39838 0.496338 6.99707L0.865479 6.50977C1.65563 5.49196 2.47601 4.59304 3.32544 3.8125L1.05493 2.36914C0.472399 1.99881 0.304802 1.22917 0.680908 0.650391C1.05713 0.0716525 1.83466 -0.0977399 2.41724 0.272461L5.40942 2.1748C7.59914 0.732892 9.96577 0.00488281 12.509 0.00488281L12.5002 0ZM4.81274 4.75781C3.79883 5.63985 2.82301 6.71318 1.88696 7.98145L1.80591 8.11621C1.7506 8.23051 1.72199 8.35571 1.72192 8.48242C1.72192 8.60931 1.75051 8.73516 1.80591 8.84961L1.88208 8.97559C4.88736 13.0513 8.27045 15.1229 12.0657 15.2588L12.5051 15.2676C14.6323 15.2676 16.6356 14.6707 18.5159 13.4688L16.2385 12.0215C16.1106 12.1537 15.9759 12.2808 15.8333 12.3994C14.9884 13.1072 13.9337 13.5249 12.8284 13.5898C11.723 13.6547 10.626 13.3628 9.70239 12.7588C8.77531 12.156 8.06971 11.2766 7.6936 10.2461C7.31753 9.21532 7.27929 8.089 7.59692 7.03613C7.63951 6.89501 7.68811 6.75608 7.74243 6.62012L4.81274 4.75781ZM9.21606 7.55664C9.16839 7.7213 9.1327 7.8896 9.1106 8.06055C9.04065 8.60151 9.10297 9.1512 9.29321 9.66309C9.4836 10.1751 9.79654 10.6345 10.2043 11.002C10.612 11.3692 11.1029 11.6345 11.636 11.7744C12.1692 11.9143 12.7295 11.9248 13.2678 11.8057C13.8059 11.6865 14.3069 11.4409 14.7288 11.0898C14.735 11.0846 14.7401 11.0775 14.7463 11.0723L9.21606 7.55664ZM12.5002 1.69824C10.5649 1.69824 8.73219 2.19241 7.00122 3.18652L9.21313 4.59277C9.29059 4.52763 9.3699 4.46425 9.45142 4.40332C10.335 3.75331 11.4062 3.40068 12.5071 3.39648C12.7323 3.3983 12.9483 3.4879 13.1077 3.64551C13.2685 3.80472 13.3586 4.02105 13.3586 4.24609C13.3585 4.47096 13.2683 4.6866 13.1077 4.8457C12.9467 5.00491 12.7279 5.09468 12.5002 5.09473C11.9486 5.09745 11.4054 5.23126 10.9172 5.48535C10.863 5.51358 10.8096 5.54325 10.7571 5.57422L15.929 8.8623C15.9934 8.28018 15.9071 7.68651 15.6682 7.14941C15.5775 6.94307 15.5732 6.70937 15.6565 6.5C15.7399 6.29043 15.9047 6.12208 16.1135 6.03223C16.3223 5.94244 16.5589 5.93804 16.7708 6.02051C16.9825 6.10297 17.1525 6.26538 17.2434 6.47168C17.685 7.47805 17.7865 8.59912 17.5325 9.66699C17.5178 9.72869 17.5006 9.78965 17.4836 9.85059L20.6047 11.835C21.4711 11.0279 22.3101 10.0786 23.1184 8.9834C23.2098 8.85953 23.2653 8.71322 23.2795 8.56055C23.2937 8.40798 23.2664 8.25438 23.1995 8.11621L23.1213 7.98828C20.1161 3.91273 16.7329 1.84093 12.9377 1.70508L12.4983 1.69629L12.5002 1.69824Z" fill="#757575"/>
</svg>
