<svg width="25" height="17" viewBox="0 0 25 17" fill="none" xmlns="http://www.w3.org/2000/svg">
<path opacity="0.3" d="M12.5002 0C17.0683 5.54852e-05 21.0867 2.36084 24.5042 6.99707C24.8265 7.43333 25.0002 7.95969 25.0002 8.5C25.0002 9.04029 24.8265 9.56669 24.5042 10.0029C21.0695 14.6391 17.0682 16.9999 12.5002 17C7.93223 17 3.91379 14.639 0.496338 10.0029L0.354736 9.79102C0.100093 9.36259 -0.021814 8.86938 0.00317383 8.37305C0.0281956 7.87666 0.19984 7.39838 0.496338 6.99707L0.865479 6.50977C4.21427 2.19616 8.09549 0.00488281 12.509 0.00488281L12.5002 0ZM12.5002 1.69824C8.53329 1.69824 4.99528 3.76992 1.88696 7.98145L1.80591 8.11621C1.7506 8.23051 1.72199 8.35571 1.72192 8.48242C1.72192 8.60931 1.75051 8.73516 1.80591 8.84961L1.88208 8.97559C4.88736 13.0513 8.27045 15.1229 12.0657 15.2588L12.5051 15.2676C16.4722 15.2676 20.01 13.1951 23.1184 8.9834C23.2098 8.85953 23.2653 8.71322 23.2795 8.56055C23.2937 8.40798 23.2664 8.25438 23.1995 8.11621L23.1213 7.98828C20.1161 3.91273 16.7329 1.84093 12.9377 1.70508L12.4983 1.69629L12.5002 1.69824ZM12.5071 3.39648C12.7323 3.3983 12.9483 3.4879 13.1077 3.64551C13.2685 3.80472 13.3586 4.02105 13.3586 4.24609C13.3585 4.47096 13.2683 4.6866 13.1077 4.8457C12.9467 5.00491 12.7279 5.09468 12.5002 5.09473C11.9486 5.09745 11.4054 5.23126 10.9172 5.48535C10.4291 5.73946 10.0101 6.10651 9.69556 6.55469C9.38101 7.00286 9.18057 7.51941 9.1106 8.06055C9.04065 8.60151 9.10297 9.1512 9.29321 9.66309C9.4836 10.1751 9.79654 10.6345 10.2043 11.002C10.612 11.3692 11.1029 11.6345 11.636 11.7744C12.1692 11.9143 12.7295 11.9248 13.2678 11.8057C13.8059 11.6865 14.3069 11.4409 14.7288 11.0898C15.2938 10.6194 15.6906 9.98064 15.8606 9.27246C16.0306 8.56429 15.9636 7.81343 15.6682 7.14941C15.5775 6.94307 15.5732 6.70937 15.6565 6.5C15.7399 6.29043 15.9047 6.12208 16.1135 6.03223C16.3223 5.94244 16.5589 5.93804 16.7708 6.02051C16.9825 6.10297 17.1525 6.26538 17.2434 6.47168C17.685 7.47805 17.7865 8.59912 17.5325 9.66699C17.2784 10.7348 16.6822 11.6933 15.8333 12.3994C14.9884 13.1072 13.9337 13.5249 12.8284 13.5898C11.723 13.6547 10.626 13.3628 9.70239 12.7588C8.77531 12.156 8.06971 11.2766 7.6936 10.2461C7.31753 9.21532 7.27929 8.089 7.59692 7.03613C7.91462 5.98325 8.56533 5.06564 9.45142 4.40332C10.335 3.75331 11.4062 3.40068 12.5071 3.39648Z" fill="#757575"/>
</svg>
