<svg width="24" height="24" viewBox="0 0 24 24" fill="none" xmlns="http://www.w3.org/2000/svg">
<path fill-rule="evenodd" clip-rule="evenodd" d="M1 12C1 15.515 1.975 18.256 3.825 20.123C5.692 22.007 8.45 23 12 23C15.789 23 18.677 21.868 20.542 19.728C22.154 17.878 23 15.275 23 12C23 8.91 22.247 6.418 20.808 4.592C18.957 2.245 15.973 1 12 1C8.468 1 5.718 1.984 3.851 3.851C1.984 5.718 1 8.468 1 12ZM3 12C3 9.014 3.757 6.764 5.26 5.26C6.764 3.758 9.014 3 12 3C14.613 3 16.662 3.58 18.14 4.732C20.043 6.213 21 8.64 21 12C21 15.241 20.108 17.616 18.337 19.109C16.846 20.367 14.73 21 12 21C9.228 21 7.09 20.348 5.595 19.051C3.87 17.555 3 15.201 3 12ZM15.447 8.553C15.2987 9.19383 15.1363 9.83132 14.96 10.465C14.6448 11.6166 14.2838 12.7551 13.878 13.878C12.1342 14.5026 10.3559 15.0265 8.552 15.447C8.70134 14.8063 8.86404 14.1689 9.04 13.535C9.35521 12.3834 9.71617 11.2449 10.122 10.122C11.8654 9.49704 13.6433 8.97318 15.447 8.553ZM17.5 6.5C16.597 6.658 15.646 6.856 14.664 7.094C13.6223 7.34668 12.5887 7.63216 11.565 7.95C10.6595 8.23088 9.76311 8.54003 8.877 8.877C8.54011 9.76314 8.23096 10.6596 7.95 11.565C7.63269 12.5886 7.34722 13.6217 7.094 14.663C6.86564 15.6021 6.66753 16.5482 6.5 17.5C7.45178 17.3324 8.39793 17.1343 9.337 16.906C10.3783 16.6523 11.4114 16.3665 12.435 16.049C13.3404 15.7685 14.2369 15.4596 15.123 15.123C15.444 14.281 15.756 13.38 16.049 12.435C16.3672 11.4116 16.653 10.3784 16.906 9.337C17.1343 8.39792 17.3324 7.45177 17.5 6.5ZM12.708 12.772C12.539 12.922 12.301 13 12 13C11.639 13 11.367 12.887 11.2 12.673C11.069 12.508 11 12.281 11 12C11 11.678 11.09 11.428 11.26 11.259C11.43 11.089 11.68 11 12 11C12.306 11 12.547 11.081 12.716 11.236C12.902 11.406 13 11.664 13 12C13 12.341 12.899 12.602 12.708 12.772Z" fill="url(#paint0_linear_444_3017)"/>
<defs>
<linearGradient id="paint0_linear_444_3017" x1="1" y1="12" x2="23" y2="12" gradientUnits="userSpaceOnUse">
<stop stop-color="#FD297B"/>
<stop offset="1" stop-color="#FF5864"/>
</linearGradient>
</defs>
</svg>
