<svg width="22" height="22" viewBox="0 0 22 22" fill="none" xmlns="http://www.w3.org/2000/svg">
<path d="M20.8487 13.4145C20.6833 11.3345 20.3987 9.84818 20.0733 8.19818C20.0733 8.19818 17.7852 5.74818 15.4116 3.81909C13.1126 1.94909 11.7163 1 11.0054 1H10.9945C10.3 1 8.88909 1.94909 6.58826 3.81909C4.21561 5.74818 1.92659 8.19818 1.92659 8.19818C1.60114 9.84909 1.31661 11.3345 1.15116 13.4145C0.949283 15.939 0.949587 18.4756 1.15207 21H8.27275V15.2636C8.27419 14.5413 8.56216 13.849 9.07345 13.3387C9.58474 12.8284 10.2776 12.5418 10.9999 12.5418C11.7223 12.5418 12.4151 12.8284 12.9264 13.3387C13.4377 13.849 13.7257 14.5413 13.7271 15.2636V21H20.8478C21.016 18.9182 21.0823 16.3518 20.8487 13.4145Z" stroke="url(#paint0_linear_444_3319)" stroke-width="2"/>
<defs>
<linearGradient id="paint0_linear_444_3319" x1="1" y1="11" x2="21" y2="11" gradientUnits="userSpaceOnUse">
<stop stop-color="#FD297B"/>
<stop offset="1" stop-color="#FF5864"/>
</linearGradient>
</defs>
</svg>
