<svg width="24" height="24" viewBox="0 0 24 24" fill="none" xmlns="http://www.w3.org/2000/svg">
<path d="M22.9498 7.17394C22.7778 5.87894 22.1498 4.79394 21.1338 4.03594C19.9908 3.16094 18.6408 2.83094 17.2148 3.08194C16.1968 3.26094 15.2318 3.71594 14.3608 4.31994C13.4725 4.94805 12.6776 5.69884 11.9998 6.54994C11.352 5.73743 10.5979 5.01564 9.75784 4.40394C8.85784 3.75794 7.84984 3.26894 6.78484 3.08194C5.35884 2.83094 4.00784 3.16094 2.86584 4.03594C1.85084 4.79394 1.22184 5.87894 1.05084 7.17394C0.695841 9.85094 2.26084 12.9279 3.84784 14.9119C4.74495 16.0414 5.74527 17.0849 6.83584 18.0289C8.17484 19.1789 9.66084 20.1579 11.2858 20.8709C11.5058 20.9679 11.7628 20.9999 11.9998 20.9999C12.2368 20.9999 12.4928 20.9679 12.7138 20.8699C14.3228 20.1649 15.7938 19.1999 17.1228 18.0639C18.2298 17.111 19.2443 16.0556 20.1528 14.9119C21.7388 12.9279 23.3028 9.85094 22.9488 7.17394H22.9498ZM18.5988 13.7169C18.1288 14.3869 17.2238 15.3689 16.1448 16.3249C14.8608 17.4649 13.3308 18.5679 11.9998 19.0639C10.7748 18.6069 9.38284 17.6379 8.16784 16.5989C6.95284 15.5589 5.91584 14.4509 5.40084 13.7169C4.13384 11.9089 2.74984 9.37494 3.00784 7.42394C3.11284 6.63094 3.45784 6.02694 4.06384 5.57694L4.07684 5.56694C4.78384 5.02294 5.55684 4.83194 6.43684 4.98994C7.23984 5.13094 8.10484 5.57094 8.92384 6.22494C9.74384 6.87894 10.5188 7.74694 11.1438 8.74694L11.9998 10.0699L12.8558 8.74594C13.4352 7.81274 14.1619 6.9796 15.0078 6.27894C15.8478 5.59494 16.7378 5.13394 17.5638 4.98894C18.4428 4.83094 19.2158 5.02194 19.9238 5.56594L19.9358 5.57594C20.5418 6.02594 20.8858 6.62994 20.9918 7.42294C21.2498 9.37294 19.8658 11.9079 18.5988 13.7159V13.7169Z" fill="url(#paint0_linear_444_3330)"/>
<defs>
<linearGradient id="paint0_linear_444_3330" x1="1" y1="12.0001" x2="22.9994" y2="12.0001" gradientUnits="userSpaceOnUse">
<stop stop-color="#FD297B"/>
<stop offset="1" stop-color="#FF5864"/>
</linearGradient>
</defs>
</svg>
