<svg width="24" height="24" viewBox="0 0 24 24" fill="none" xmlns="http://www.w3.org/2000/svg">
<path fill-rule="evenodd" clip-rule="evenodd" d="M15.7873 7.29999C15.7873 4.98369 13.8644 3.09999 11.5 3.09999C9.13557 3.09999 7.21272 4.98369 7.21272 7.29999C7.21272 9.6163 9.13557 11.5 11.5 11.5C13.8644 11.5 15.7873 9.6163 15.7873 7.29999ZM19.843 22H17.9309C17.3393 22 16.8591 21.5296 16.8591 20.95C16.8591 20.3704 17.3393 19.9 17.9309 19.9H18.3907C19.1324 19.9 19.6801 19.1681 19.3993 18.4951C18.1013 15.3829 15.0531 13.6 11.5 13.6C7.94692 13.6 4.89866 15.3829 3.60069 18.4951C3.31987 19.1681 3.86759 19.9 4.60929 19.9H5.06908C5.66072 19.9 6.1409 20.3704 6.1409 20.95C6.1409 21.5296 5.66072 22 5.06908 22H3.15695C1.81718 22 0.762509 20.7998 1.04654 19.5178C1.82682 15.9908 4.26309 13.3879 7.47211 12.2066C6.00801 11.0527 5.06908 9.2845 5.06908 7.29999C5.06908 3.57144 8.37458 0.599925 12.2706 1.04408C15.0938 1.36538 17.4325 3.56928 17.8559 6.32343C18.2203 8.69749 17.2289 10.8658 15.5279 12.2066C18.7369 13.3879 21.1732 15.9908 21.9535 19.5178C22.2375 20.7998 21.1828 22 19.843 22ZM14.7155 20.95C14.7155 21.5296 14.2353 22 13.6436 22H9.35636C8.76472 22 8.28454 21.5296 8.28454 20.95C8.28454 20.3704 8.76472 19.9 9.35636 19.9H13.6436C14.2353 19.9 14.7155 20.3704 14.7155 20.95Z" fill="url(#paint0_linear_444_3344)"/>
<defs>
<linearGradient id="paint0_linear_444_3344" x1="1" y1="11.5" x2="22" y2="11.5" gradientUnits="userSpaceOnUse">
<stop stop-color="#FD297B"/>
<stop offset="1" stop-color="#FF5864"/>
</linearGradient>
</defs>
</svg>
