<svg width="18" height="18" viewBox="0 0 18 18" fill="none" xmlns="http://www.w3.org/2000/svg">
<g clip-path="url(#clip0_254_8613)">
<path fill-rule="evenodd" clip-rule="evenodd" d="M9 6.1875C7.4467 6.1875 6.1875 7.4467 6.1875 9C6.1875 10.5533 7.4467 11.8125 9 11.8125C10.5533 11.8125 11.8125 10.5533 11.8125 9C11.8125 7.4467 10.5533 6.1875 9 6.1875ZM7.3125 9C7.3125 8.06805 8.06805 7.3125 9 7.3125C9.93195 7.3125 10.6875 8.06805 10.6875 9C10.6875 9.93195 9.93195 10.6875 9 10.6875C8.06805 10.6875 7.3125 9.93195 7.3125 9Z" fill="black"/>
<path fill-rule="evenodd" clip-rule="evenodd" d="M8.9809 0.9375C8.6476 0.937493 8.36928 0.937493 8.14083 0.953078C7.903 0.969308 7.67838 1.00429 7.46059 1.0945C6.95522 1.30383 6.5537 1.70534 6.34437 2.21072C6.23539 2.47382 6.20588 2.75109 6.19461 3.05247C6.18555 3.29474 6.06328 3.49688 5.88284 3.60106C5.70241 3.70523 5.46622 3.71005 5.25187 3.59676C4.98523 3.45583 4.73035 3.34274 4.448 3.30557C3.90568 3.23417 3.35719 3.38114 2.92322 3.71414C2.7362 3.85765 2.59358 4.0347 2.46062 4.23255C2.33289 4.42261 2.19376 4.66361 2.02708 4.9523L2.00815 4.98511C1.84147 5.27379 1.70233 5.51478 1.60159 5.72042C1.49674 5.9345 1.41471 6.14654 1.38394 6.38026C1.31254 6.92259 1.45951 7.47106 1.7925 7.90507C1.96584 8.1309 2.19118 8.29515 2.44651 8.45557C2.65184 8.58457 2.76579 8.79157 2.76577 9C2.76577 9.20835 2.65182 9.41535 2.44651 9.54435C2.19115 9.70477 1.96579 9.86902 1.79243 10.0949C1.45943 10.5289 1.31247 11.0773 1.38386 11.6197C1.41463 11.8534 1.49666 12.0655 1.60152 12.2795C1.70225 12.4852 1.84139 12.7261 2.00806 13.0148L2.02701 13.0477C2.19368 13.3363 2.33281 13.5773 2.46055 13.7674C2.59351 13.9652 2.73613 14.1423 2.92315 14.2858C3.35712 14.6188 3.9056 14.7658 4.44793 14.6944C4.73026 14.6572 4.98513 14.5441 5.25175 14.4032C5.46613 14.2899 5.70235 14.2947 5.8828 14.3989C6.06327 14.5031 6.18555 14.7052 6.19461 14.9476C6.20588 15.2489 6.2354 15.5262 6.34437 15.7893C6.5537 16.2946 6.95522 16.6962 7.46059 16.9055C7.67838 16.9957 7.903 17.0307 8.14083 17.0469C8.36928 17.0625 8.6476 17.0625 8.9809 17.0625H9.01878C9.35215 17.0625 9.6304 17.0625 9.85893 17.0469C10.0968 17.0307 10.3214 16.9957 10.5392 16.9055C11.0445 16.6962 11.4461 16.2946 11.6554 15.7893C11.7644 15.5262 11.7939 15.2489 11.8051 14.9475C11.8142 14.7052 11.9364 14.5031 12.1169 14.3989C12.2973 14.2947 12.5336 14.2899 12.7479 14.4031C13.0146 14.5441 13.2694 14.6572 13.5518 14.6943C14.0941 14.7657 14.6426 14.6188 15.0765 14.2858C15.2636 14.1422 15.4062 13.9652 15.5391 13.7674C15.6669 13.5773 15.806 13.3363 15.9726 13.0477L15.9916 13.0148C16.1583 12.7261 16.2975 12.4851 16.3982 12.2794C16.503 12.0654 16.585 11.8534 16.6158 11.6197C16.6872 11.0773 16.5402 10.5288 16.2072 10.0948C16.0339 9.86895 15.8085 9.70477 15.5532 9.54435C15.3479 9.41535 15.234 9.20835 15.234 8.99992C15.234 8.79157 15.3479 8.58465 15.5532 8.45565C15.8086 8.29522 16.034 8.13105 16.2073 7.90507C16.5403 7.47112 16.6873 6.92264 16.6159 6.38031C16.5851 6.1466 16.5031 5.93455 16.3983 5.72047C16.2975 5.51485 16.1584 5.27387 15.9917 4.98521L15.9728 4.95238C15.8061 4.66369 15.6669 4.42266 15.5392 4.2326C15.4062 4.03475 15.2637 3.8577 15.0766 3.71419C14.6427 3.3812 14.0942 3.23423 13.5518 3.30562C13.2695 3.34279 13.0146 3.45587 12.748 3.59679C12.5337 3.71009 12.2974 3.70527 12.117 3.60108C11.9365 3.4969 11.8142 3.29473 11.8051 3.05243C11.7939 2.75106 11.7644 2.4738 11.6554 2.21072C11.4461 1.70534 11.0445 1.30383 10.5392 1.0945C10.3214 1.00429 10.0968 0.969308 9.85893 0.953078C9.6304 0.937493 9.35215 0.937493 9.01878 0.9375H8.9809ZM7.89108 2.13386C7.94898 2.10989 8.03688 2.08779 8.2174 2.07547C8.40303 2.06281 8.64273 2.0625 8.99988 2.0625C9.35703 2.0625 9.59673 2.06281 9.78228 2.07547C9.96288 2.08779 10.0508 2.10989 10.1086 2.13386C10.3383 2.22902 10.5209 2.41152 10.616 2.64124C10.6461 2.7137 10.6709 2.82665 10.6809 3.09448C10.7031 3.68876 11.0099 4.26097 11.5545 4.57536C12.099 4.88976 12.7479 4.8693 13.2737 4.59141C13.5106 4.46618 13.6209 4.43124 13.6986 4.421C13.9452 4.38855 14.1945 4.45535 14.3917 4.60671C14.4414 4.64484 14.5045 4.70992 14.6055 4.86012C14.7093 5.01452 14.8293 5.22195 15.0079 5.53125C15.1865 5.84056 15.3061 6.04829 15.3879 6.21535C15.4675 6.37787 15.4923 6.46505 15.5005 6.52715C15.533 6.77366 15.4662 7.02298 15.3148 7.22023C15.267 7.28246 15.1817 7.36049 14.9547 7.50307C14.4512 7.8195 14.109 8.3712 14.109 8.99992C14.109 9.62872 14.4511 10.1805 14.9547 10.4969C15.1816 10.6395 15.267 10.7175 15.3147 10.7797C15.4661 10.977 15.5329 11.2263 15.5004 11.4728C15.4923 11.5349 15.4674 11.6221 15.3879 11.7846C15.306 11.9516 15.1864 12.1594 15.0078 12.4687C14.8293 12.778 14.7092 12.9854 14.6054 13.1398C14.5044 13.29 14.4414 13.3551 14.3916 13.3932C14.1944 13.5446 13.9451 13.6114 13.6986 13.579C13.6209 13.5687 13.5105 13.5337 13.2736 13.4086C12.7479 13.1306 12.0989 13.1102 11.5543 13.4246C11.0099 13.739 10.7031 14.3112 10.6809 14.9055C10.6709 15.1733 10.6461 15.2863 10.616 15.3588C10.5209 15.5884 10.3383 15.771 10.1086 15.8662C10.0508 15.8901 9.96288 15.9122 9.78228 15.9245C9.59673 15.9372 9.35703 15.9375 8.99988 15.9375C8.64273 15.9375 8.40303 15.9372 8.2174 15.9245C8.03688 15.9122 7.94898 15.8901 7.89108 15.8662C7.66143 15.771 7.47889 15.5884 7.38373 15.3588C7.35372 15.2863 7.32884 15.1733 7.31882 14.9055C7.2966 14.3113 6.98986 13.739 6.4453 13.4246C5.90076 13.1102 5.25184 13.1307 4.72606 13.4086C4.48912 13.5338 4.37885 13.5688 4.30109 13.579C4.05457 13.6114 3.80527 13.5446 3.60801 13.3933C3.55831 13.3552 3.49522 13.2901 3.39427 13.1398C3.29051 12.9855 3.1704 12.778 2.99182 12.4687C2.81324 12.1594 2.69366 11.9517 2.61183 11.7847C2.53222 11.6221 2.50741 11.5349 2.49924 11.4728C2.46679 11.2263 2.53359 10.977 2.68495 10.7797C2.7327 10.7176 2.81809 10.6395 3.04503 10.4969C3.54856 10.1806 3.89074 9.6288 3.89077 9.00007C3.89081 8.3712 3.54862 7.81942 3.04504 7.503C2.81815 7.36042 2.73277 7.2824 2.68502 7.22018C2.53366 7.02292 2.46686 6.77362 2.49931 6.5271C2.50749 6.46501 2.5323 6.37781 2.6119 6.2153C2.69374 6.04823 2.81332 5.84051 2.99189 5.5312C3.17047 5.2219 3.29058 5.01447 3.39435 4.86007C3.49529 4.70987 3.55839 4.64479 3.60808 4.60667C3.80534 4.4553 4.05465 4.3885 4.30116 4.42095C4.37893 4.43119 4.4892 4.46612 4.72618 4.59138C5.25193 4.86926 5.90081 4.88971 6.44533 4.57534C6.98986 4.26096 7.2966 3.68878 7.31882 3.09452C7.32884 2.82667 7.35372 2.7137 7.38373 2.64124C7.47889 2.41152 7.66143 2.22902 7.89108 2.13386Z" fill="black"/>
</g>
<defs>
<clipPath id="clip0_254_8613">
<rect width="18" height="18" fill="white"/>
</clipPath>
</defs>
</svg>
