<svg width="24" height="24" viewBox="0 0 24 24" fill="none" xmlns="http://www.w3.org/2000/svg">
<path d="M2 20H22" stroke="url(#paint0_linear_751_23029)" stroke-width="2" stroke-linecap="round" stroke-linejoin="round"/>
<path d="M5 20V8.2C5 8.14696 5.02107 8.09609 5.05858 8.05858C5.09609 8.02107 5.14696 8 5.2 8H7.8C7.85304 8 7.90391 8.02107 7.94142 8.05858C7.97893 8.09609 8 8.14696 8 8.2V20" stroke="url(#paint1_linear_751_23029)" stroke-width="2" stroke-linecap="round" stroke-linejoin="round"/>
<path d="M11 20V4.26667C11 4.11939 11.0895 4 11.2 4H13.8C13.9105 4 14 4.11939 14 4.26667V20" stroke="url(#paint2_linear_751_23029)" stroke-width="2" stroke-linecap="round" stroke-linejoin="round"/>
<path d="M17 20V11.15C17 11.0672 17.0895 11 17.2 11H19.8C19.9105 11 20 11.0672 20 11.15V20" stroke="url(#paint3_linear_751_23029)" stroke-width="2" stroke-linecap="round" stroke-linejoin="round"/>
<defs>
<linearGradient id="paint0_linear_751_23029" x1="2" y1="20.5" x2="22" y2="20.5" gradientUnits="userSpaceOnUse">
<stop stop-color="#FD297B"/>
<stop offset="1" stop-color="#FF5864"/>
</linearGradient>
<linearGradient id="paint1_linear_751_23029" x1="5" y1="14" x2="8" y2="14" gradientUnits="userSpaceOnUse">
<stop stop-color="#FD297B"/>
<stop offset="1" stop-color="#FF5864"/>
</linearGradient>
<linearGradient id="paint2_linear_751_23029" x1="11" y1="12" x2="14" y2="12" gradientUnits="userSpaceOnUse">
<stop stop-color="#FD297B"/>
<stop offset="1" stop-color="#FF5864"/>
</linearGradient>
<linearGradient id="paint3_linear_751_23029" x1="17" y1="15.5" x2="20" y2="15.5" gradientUnits="userSpaceOnUse">
<stop stop-color="#FD297B"/>
<stop offset="1" stop-color="#FF5864"/>
</linearGradient>
</defs>
</svg>
