<svg width="16" height="18" viewBox="0 0 16 18" fill="none" xmlns="http://www.w3.org/2000/svg">
<path d="M10.8175 3.21978L13.039 5.73442M1 17L1.03727 16.7047C1.16915 15.6597 1.23509 15.1372 1.38508 14.6494C1.51818 14.2165 1.69999 13.8049 1.92605 13.4247C2.1808 12.9962 2.5105 12.623 3.1699 11.8766L12.3184 1.5208C12.9319 0.8264 13.9265 0.8264 14.5399 1.5208C15.1534 2.2152 15.1534 3.34104 14.5399 4.03545L5.22353 14.5812C4.62532 15.2584 4.32621 15.597 3.98552 15.8662C3.68312 16.1052 3.35698 16.3032 3.01379 16.4561C2.62715 16.6284 2.21249 16.7231 1.38323 16.9124L1 17Z" stroke="black" stroke-opacity="0.4" stroke-width="2" stroke-linecap="round" stroke-linejoin="round"/>
</svg>
