<svg width="18" height="18" viewBox="0 0 18 18" fill="none" xmlns="http://www.w3.org/2000/svg">
<path fill-rule="evenodd" clip-rule="evenodd" d="M11.8405 5.47499C11.8405 3.73777 10.3983 2.32499 8.625 2.32499C6.85168 2.32499 5.40954 3.73777 5.40954 5.47499C5.40954 7.21223 6.85168 8.62499 8.625 8.62499C10.3983 8.62499 11.8405 7.21223 11.8405 5.47499ZM14.8823 16.5H13.4482C13.0045 16.5 12.6443 16.1472 12.6443 15.7125C12.6443 15.2778 13.0045 14.925 13.4482 14.925H13.793C14.3493 14.925 14.7601 14.3761 14.5495 13.8713C13.576 11.5372 11.2898 10.2 8.625 10.2C5.96019 10.2 3.674 11.5372 2.70052 13.8713C2.4899 14.3761 2.90069 14.925 3.45697 14.925H3.80181C4.24554 14.925 4.60567 15.2778 4.60567 15.7125C4.60567 16.1472 4.24554 16.5 3.80181 16.5H2.36771C1.36288 16.5 0.571882 15.5999 0.784906 14.6383C1.37012 11.9931 3.19731 10.0409 5.60408 9.15496C4.506 8.2895 3.80181 6.96338 3.80181 5.47499C3.80181 2.67858 6.28094 0.449944 9.20298 0.783057C11.3204 1.02403 13.0744 2.67696 13.3919 4.74257C13.6652 6.52312 12.9216 8.14932 11.6459 9.15496C14.0527 10.0409 15.8799 11.9931 16.4651 14.6383C16.6781 15.5999 15.8871 16.5 14.8823 16.5ZM11.0366 15.7125C11.0366 16.1472 10.6765 16.5 10.2327 16.5H7.01727C6.57354 16.5 6.2134 16.1472 6.2134 15.7125C6.2134 15.2778 6.57354 14.925 7.01727 14.925H10.2327C10.6765 14.925 11.0366 15.2778 11.0366 15.7125Z" fill="#121216"/>
</svg>
