<svg width="19" height="19" viewBox="0 0 19 19" fill="none" xmlns="http://www.w3.org/2000/svg">
<path d="M16.2294 4.75H2.771" stroke="#FD297B" stroke-linecap="round"/>
<path d="M14.9098 6.72919L14.5456 12.191C14.4055 14.2928 14.3354 15.3437 13.6507 15.9843C12.9659 16.625 11.9126 16.625 9.80616 16.625H9.19397C7.08746 16.625 6.03423 16.625 5.34943 15.9843C4.66464 15.3437 4.59458 14.2928 4.45445 12.191L4.09033 6.72919" stroke="#FD297B" stroke-linecap="round"/>
<path d="M5.146 4.75C5.19023 4.75 5.21235 4.75 5.23241 4.74949C5.8843 4.73297 6.45939 4.31847 6.68121 3.70525C6.68804 3.68639 6.69503 3.66541 6.70902 3.62343L6.78588 3.39285C6.85149 3.19602 6.8843 3.0976 6.92781 3.01403C7.10142 2.68064 7.42262 2.44913 7.79381 2.38986C7.88685 2.375 7.99061 2.375 8.19811 2.375H10.8022C11.0097 2.375 11.1135 2.375 11.2065 2.38986C11.5777 2.44913 11.8989 2.68064 12.0725 3.01403C12.1161 3.0976 12.1488 3.19602 12.2145 3.39285L12.2913 3.62343C12.3053 3.66535 12.3123 3.6864 12.3191 3.70525C12.541 4.31847 13.116 4.73297 13.768 4.74949C13.788 4.75 13.8101 4.75 13.8543 4.75" stroke="#FD297B"/>
</svg>
